<svg xmlns="http://www.w3.org/2000/svg" xmlns:xlink="http://www.w3.org/1999/xlink" width="500" zoomAndPan="magnify" viewBox="0 0 375 374.999991" height="500" preserveAspectRatio="xMidYMid meet" version="1.0"><defs><g/><clipPath id="b9f8e4f638"><path d="M 134.5 106.484375 L 240.25 106.484375 L 240.25 220.484375 L 134.5 220.484375 Z M 134.5 106.484375 " clip-rule="nonzero"/></clipPath></defs><g clip-path="url(#b9f8e4f638)"><path fill="#00ff19" d="M 195.46875 196.625 C 194.800781 196.625 194.167969 196.789062 193.613281 197.082031 L 187.785156 194.613281 C 187.234375 194.382812 186.613281 194.382812 186.0625 194.621094 L 141.242188 214.03125 L 142.9375 210.355469 C 144.953125 210.152344 146.527344 208.453125 146.527344 206.382812 C 146.527344 204.179688 144.738281 202.390625 142.53125 202.390625 C 140.324219 202.390625 138.539062 204.179688 138.539062 206.382812 C 138.539062 207.097656 138.726562 207.769531 139.054688 208.347656 L 134.878906 217.390625 C 134.5 218.210938 134.667969 219.183594 135.300781 219.832031 C 135.71875 220.261719 136.285156 220.492188 136.863281 220.492188 C 137.15625 220.492188 137.449219 220.429688 137.730469 220.308594 L 186.941406 199 L 191.488281 200.925781 C 191.644531 202.988281 193.367188 204.613281 195.46875 204.613281 C 197.675781 204.613281 199.464844 202.824219 199.464844 200.617188 C 199.464844 198.414062 197.675781 196.625 195.46875 196.625 Z M 200.582031 131.804688 L 189.476562 107.757812 C 189.117188 106.984375 188.34375 106.488281 187.492188 106.488281 C 186.640625 106.488281 185.867188 106.984375 185.511719 107.757812 L 157.214844 169.023438 C 155.085938 169.113281 153.386719 170.863281 153.386719 173.015625 C 153.386719 175.21875 155.175781 177.007812 157.382812 177.007812 C 159.589844 177.007812 161.375 175.21875 161.375 173.015625 C 161.375 172.394531 161.234375 171.808594 160.984375 171.285156 L 187.492188 113.882812 L 196.640625 133.6875 C 196.269531 134.292969 196.058594 135.003906 196.058594 135.761719 C 196.058594 137.96875 197.84375 139.757812 200.050781 139.757812 C 202.257812 139.757812 204.042969 137.96875 204.042969 135.761719 C 204.042969 133.738281 202.535156 132.066406 200.582031 131.804688 Z M 239.691406 219.824219 C 239.273438 220.257812 238.703125 220.492188 238.125 220.492188 C 237.835938 220.492188 237.546875 220.433594 237.273438 220.316406 L 223.816406 214.617188 C 223.179688 215.046875 222.414062 215.296875 221.589844 215.296875 C 219.382812 215.296875 217.59375 213.507812 217.59375 211.304688 C 217.59375 209.097656 219.382812 207.308594 221.589844 207.308594 C 223.554688 207.308594 225.183594 208.726562 225.519531 210.597656 L 233.773438 214.089844 L 212.226562 167.441406 C 210.296875 167.160156 208.8125 165.496094 208.8125 163.488281 C 208.8125 161.28125 210.601562 159.496094 212.808594 159.496094 C 215.015625 159.496094 216.800781 161.28125 216.800781 163.488281 C 216.800781 164.269531 216.578125 164.992188 216.191406 165.609375 L 240.105469 217.390625 C 240.484375 218.210938 240.320312 219.175781 239.691406 219.824219 " fill-opacity="1" fill-rule="nonzero"/></g><g fill="#ffffff" fill-opacity="1"><g transform="translate(118.083256, 243.744975)"><g><path d="M 22.929688 -9.851562 L 22.929688 -13.710938 L 24.199219 -13.710938 L 24.199219 -15.234375 L 22.429688 -15.234375 L 22.429688 -15.777344 C 22.429688 -15.960938 22.429688 -16.117188 22.40625 -16.277344 L 24.179688 -16.277344 C 24.15625 -16.914062 24.066406 -17.414062 23.90625 -17.777344 L 22.363281 -17.777344 C 22.339844 -17.84375 22.316406 -17.914062 22.269531 -17.980469 C 22 -18.457031 21.476562 -18.707031 20.75 -18.707031 L 18.683594 -18.707031 C 18.390625 -18.707031 18.117188 -18.683594 17.914062 -18.617188 C 17.664062 -18.546875 17.457031 -18.433594 17.277344 -18.277344 C 17.164062 -18.140625 17.027344 -17.980469 16.9375 -17.777344 L 18.480469 -17.777344 C 18.433594 -17.730469 18.390625 -17.664062 18.367188 -17.617188 C 18.253906 -17.34375 18.117188 -17.003906 17.980469 -16.574219 L 17.867188 -16.277344 L 16.097656 -16.277344 L 15.6875 -15.234375 L 17.457031 -15.234375 L 16.84375 -13.710938 L 15.574219 -13.710938 L 14.03125 -9.851562 L 15.664062 -9.851562 L 15.460938 -9.351562 L 15.257812 -9.351562 L 14.257812 -6.902344 L 13.621094 -6.902344 L 12.621094 -9.351562 L 12.851562 -9.351562 L 12.644531 -9.851562 L 11.011719 -9.851562 L 9.46875 -13.710938 L 10.761719 -13.710938 L 10.148438 -15.234375 L 8.378906 -15.234375 L 7.96875 -16.277344 L 9.714844 -16.277344 L 9.601562 -16.574219 C 9.46875 -17.003906 9.332031 -17.34375 9.21875 -17.617188 C 9.171875 -17.664062 9.148438 -17.730469 9.105469 -17.777344 L 7.582031 -17.777344 C 7.46875 -17.980469 7.355469 -18.140625 7.21875 -18.277344 C 7.039062 -18.433594 6.832031 -18.546875 6.582031 -18.617188 C 6.355469 -18.683594 6.105469 -18.707031 5.789062 -18.707031 L 3.699219 -18.707031 C 2.953125 -18.707031 2.429688 -18.457031 2.15625 -17.980469 C 2.113281 -17.914062 2.089844 -17.84375 2.042969 -17.777344 L 3.585938 -17.777344 C 3.449219 -17.414062 3.359375 -16.914062 3.335938 -16.277344 L 0.410156 -16.277344 C 0.410156 -16.117188 0.410156 -15.960938 0.410156 -15.777344 L 0.410156 -15.234375 L 3.335938 -15.234375 L 3.335938 -13.710938 L 2.042969 -13.710938 L 2.042969 -9.851562 L 3.679688 -9.851562 L 3.679688 -9.351562 L 1.566406 -9.351562 L 1.566406 -6.902344 L 2.703125 -6.902344 L 2.703125 -3.085938 L 1.839844 -3.085938 L 1.839844 -2.566406 L 2.042969 -2.566406 L 2.042969 -1.066406 L 3.679688 -1.066406 L 3.679688 -0.773438 C 3.679688 -0.0664062 4.132812 0.0234375 4.335938 0.0234375 L 6.289062 0.0234375 C 6.492188 0.0234375 6.925781 -0.0664062 6.925781 -0.773438 L 6.925781 -1.066406 L 6.289062 -1.066406 L 6.289062 -2.566406 L 8.378906 -2.566406 L 8.378906 -3.085938 L 7.039062 -3.085938 L 7.039062 -5.378906 L 4.972656 -5.378906 L 4.972656 -6.902344 L 6.515625 -6.902344 L 6.515625 -9.351562 L 6.925781 -9.351562 L 6.925781 -9.851562 L 5.3125 -9.851562 L 5.3125 -13.710938 L 5.742188 -13.710938 L 7.308594 -9.851562 L 8.945312 -9.851562 L 9.148438 -9.351562 L 8.921875 -9.351562 L 9.921875 -6.902344 L 8.535156 -6.902344 L 9.148438 -5.378906 L 10.441406 -5.378906 L 10.691406 -4.789062 C 10.851562 -4.3125 11.011719 -3.90625 11.167969 -3.5625 C 11.261719 -3.382812 11.351562 -3.222656 11.441406 -3.085938 L 11.488281 -3.085938 C 11.578125 -2.953125 11.667969 -2.835938 11.761719 -2.722656 C 11.804688 -2.679688 11.851562 -2.632812 11.917969 -2.566406 L 10.261719 -2.566406 C 10.441406 -2.429688 10.625 -2.292969 10.828125 -2.226562 C 11.101562 -2.132812 11.398438 -2.089844 11.738281 -2.089844 L 12.667969 -2.089844 C 13.007812 -2.089844 13.328125 -2.132812 13.574219 -2.226562 C 13.78125 -2.292969 13.984375 -2.429688 14.144531 -2.566406 L 15.800781 -2.566406 C 15.847656 -2.632812 15.890625 -2.679688 15.9375 -2.722656 C 16.027344 -2.835938 16.117188 -2.953125 16.210938 -3.085938 L 16.164062 -3.085938 C 16.277344 -3.222656 16.367188 -3.382812 16.460938 -3.5625 C 16.617188 -3.90625 16.777344 -4.3125 16.9375 -4.789062 L 17.1875 -5.378906 L 15.890625 -5.378906 L 16.503906 -6.902344 L 17.890625 -6.902344 L 18.867188 -9.351562 L 19.09375 -9.351562 L 19.296875 -9.851562 L 17.664062 -9.851562 L 19.230469 -13.710938 L 19.683594 -13.710938 L 19.683594 -9.851562 L 21.296875 -9.851562 L 21.296875 -9.351562 L 21.089844 -9.351562 L 21.089844 -6.902344 L 19.636719 -6.902344 L 19.636719 -5.378906 L 21.089844 -5.378906 L 21.089844 -3.085938 L 18.546875 -3.085938 L 18.546875 -2.566406 L 20.75 -2.566406 L 20.75 -1.066406 L 19.910156 -1.066406 L 19.910156 -0.773438 C 19.910156 -0.0664062 20.339844 0.0234375 20.546875 0.0234375 L 22.5 0.0234375 C 22.703125 0.0234375 23.15625 -0.0664062 23.15625 -0.773438 L 23.15625 -1.066406 L 23.996094 -1.066406 L 23.996094 -2.566406 L 22.632812 -2.566406 L 22.632812 -3.085938 L 24.335938 -3.085938 L 24.335938 -5.378906 L 23.566406 -5.378906 L 23.566406 -6.902344 L 24.335938 -6.902344 L 24.335938 -9.351562 L 25.585938 -9.351562 L 25.585938 -9.851562 Z M 10.398438 -1.269531 L 7.058594 -1.269531 L 7.058594 -1.566406 L 10.398438 -1.566406 Z M 15.621094 -16.253906 L 12.28125 -16.253906 L 12.28125 -16.527344 L 15.621094 -16.527344 Z M 14.234375 -12.371094 L 11.054688 -12.371094 L 11.054688 -12.601562 L 14.234375 -12.601562 Z M 18.796875 -1.929688 L 15.621094 -1.929688 L 15.621094 -2.179688 L 18.796875 -2.179688 Z M 18.796875 -1.929688 "/></g></g></g><g fill="#ffffff" fill-opacity="1"><g transform="translate(141.89414, 243.744975)"><g><path d="M 21.839844 -0.839844 L 20.089844 -0.839844 C 20.089844 -0.863281 20.089844 -0.863281 20.089844 -0.863281 L 19.523438 -2.269531 L 20.816406 -2.269531 L 19.59375 -5.289062 L 17.796875 -5.289062 L 17.230469 -6.71875 L 18.433594 -6.71875 L 16.980469 -10.328125 L 18.027344 -10.328125 L 17.84375 -10.804688 L 16.164062 -10.804688 L 15.234375 -13.097656 L 16.347656 -13.097656 L 15.753906 -14.53125 L 14.074219 -14.53125 L 13.234375 -16.59375 C 13.234375 -16.617188 13.210938 -16.640625 13.210938 -16.6875 L 12.238281 -16.6875 C 12.191406 -16.777344 12.144531 -16.867188 12.125 -16.9375 C 12.101562 -17.003906 12.054688 -17.074219 12.03125 -17.164062 L 14.871094 -17.164062 C 14.644531 -17.753906 14.210938 -18.253906 13.667969 -18.570312 L 12.984375 -18.570312 C 12.578125 -18.820312 12.101562 -18.957031 11.578125 -18.957031 C 11.078125 -18.957031 10.578125 -18.820312 10.171875 -18.570312 L 10.828125 -18.570312 C 10.785156 -18.546875 10.738281 -18.503906 10.671875 -18.480469 C 10.558594 -18.410156 10.441406 -18.320312 10.351562 -18.253906 C 10.078125 -18.027344 9.851562 -17.664062 9.601562 -17.164062 L 6.765625 -17.164062 C 6.695312 -17.003906 6.628906 -16.84375 6.5625 -16.6875 L 7.515625 -16.6875 C 7.515625 -16.640625 7.492188 -16.617188 7.492188 -16.59375 L 6.652344 -14.53125 L 8.332031 -14.53125 L 7.765625 -13.097656 L 6.652344 -13.097656 L 5.722656 -10.804688 L 7.402344 -10.804688 L 7.21875 -10.328125 L 6.152344 -10.328125 L 4.699219 -6.71875 L 3.496094 -6.71875 L 2.929688 -5.289062 L 4.722656 -5.289062 L 3.496094 -2.269531 L 2.179688 -2.269531 L 1.632812 -0.863281 C 1.632812 -0.863281 1.613281 -0.863281 1.613281 -0.839844 L 3.382812 -0.839844 C 3.316406 -0.660156 3.292969 -0.523438 3.316406 -0.386719 L 1.5 -0.386719 C 1.519531 -0.363281 1.519531 -0.339844 1.519531 -0.316406 C 1.542969 -0.179688 1.65625 0.0234375 2.019531 0.0234375 L 4.519531 0.0234375 C 4.789062 0.0234375 4.996094 -0.136719 5.109375 -0.386719 L 6.925781 -0.386719 C 6.945312 -0.410156 6.96875 -0.429688 6.96875 -0.453125 L 7.128906 -0.839844 L 5.359375 -0.839844 L 5.925781 -2.269531 L 7.242188 -2.269531 L 7.808594 -3.699219 L 12.78125 -3.699219 C 13.03125 -3.699219 13.257812 -3.8125 13.371094 -4.019531 C 13.507812 -4.199219 13.53125 -4.449219 13.460938 -4.675781 L 13.210938 -5.289062 L 11.417969 -5.289062 L 10.851562 -6.695312 C 10.851562 -6.695312 10.851562 -6.71875 10.851562 -6.71875 L 12.054688 -6.71875 C 11.941406 -6.96875 11.691406 -7.152344 11.398438 -7.152344 L 8.605469 -7.152344 L 9.011719 -8.171875 L 11.28125 -8.171875 L 11.28125 -8.421875 L 9.105469 -8.421875 L 9.851562 -10.328125 L 10.898438 -10.328125 L 11.101562 -10.804688 L 9.421875 -10.804688 L 10.328125 -13.097656 L 11.441406 -13.097656 L 11.988281 -14.507812 C 12.007812 -14.53125 12.007812 -14.53125 12.007812 -14.53125 L 12.144531 -14.53125 L 12.714844 -13.097656 L 11.601562 -13.097656 L 12.53125 -10.804688 L 14.210938 -10.804688 L 14.394531 -10.328125 L 13.347656 -10.328125 L 14.78125 -6.71875 L 13.574219 -6.71875 L 14.144531 -5.289062 L 15.9375 -5.289062 L 17.164062 -2.269531 L 15.847656 -2.269531 L 16.414062 -0.839844 L 18.183594 -0.839844 L 18.320312 -0.476562 C 18.34375 -0.429688 18.367188 -0.410156 18.367188 -0.386719 L 16.550781 -0.386719 C 16.6875 -0.136719 16.890625 0.0234375 17.164062 0.0234375 L 19.59375 0.0234375 C 19.957031 0.0234375 20.046875 -0.203125 20.089844 -0.316406 C 20.089844 -0.316406 20.089844 -0.363281 20.089844 -0.386719 L 21.90625 -0.386719 C 21.929688 -0.523438 21.90625 -0.660156 21.839844 -0.839844 Z M 10.375 -2.859375 L 14.1875 -2.859375 L 14.1875 -2.632812 L 10.375 -2.632812 Z M 6.425781 -1.613281 L 8.921875 -1.613281 L 8.921875 -1.363281 L 6.425781 -1.363281 Z M 6.425781 -1.613281 "/></g></g></g><g fill="#ffffff" fill-opacity="1"><g transform="translate(163.503203, 243.744975)"><g><path d="M 18.277344 -18.707031 L 3.246094 -18.707031 C 3.042969 -18.707031 2.589844 -18.640625 2.589844 -17.933594 L 2.589844 -17.207031 L 0.839844 -17.207031 L 0.839844 -16.164062 C 0.839844 -15.414062 1.292969 -15.347656 1.5 -15.347656 L 7.332031 -15.347656 L 7.332031 -14.664062 L 9.808594 -14.664062 L 9.808594 -14.121094 L 7.765625 -14.121094 L 7.765625 -10.917969 L 9.082031 -10.917969 L 9.082031 -9.261719 L 8.128906 -9.261719 L 8.128906 -6.765625 L 9.082031 -6.765625 L 9.082031 -6.21875 L 7.765625 -6.21875 L 7.765625 -4.585938 L 9.082031 -4.585938 L 9.082031 -2.953125 L 7.832031 -2.953125 L 7.832031 -1.339844 L 9.808594 -1.339844 L 9.808594 -0.773438 C 9.808594 -0.0664062 10.261719 0 10.441406 0 L 12.554688 0 C 12.734375 0 13.191406 -0.0664062 13.191406 -0.773438 L 13.191406 -1.339844 L 12.601562 -1.339844 L 12.601562 -2.953125 L 11.917969 -2.953125 L 13.28125 -2.953125 L 13.28125 -4.585938 L 11.148438 -4.585938 L 11.148438 -6.21875 L 13.28125 -6.21875 L 13.28125 -6.765625 L 11.511719 -6.765625 L 11.511719 -9.261719 L 13.03125 -9.261719 L 13.03125 -10.917969 L 11.148438 -10.917969 L 11.148438 -14.121094 L 15.277344 -14.121094 L 15.277344 -14.664062 L 10.691406 -14.664062 L 10.691406 -15.347656 L 16.527344 -15.347656 C 16.730469 -15.347656 17.1875 -15.414062 17.1875 -16.164062 L 17.1875 -17.207031 L 18.933594 -17.207031 L 18.933594 -17.933594 C 18.933594 -18.640625 18.480469 -18.707031 18.277344 -18.707031 Z M 15.9375 -12.394531 L 12.644531 -12.394531 L 12.644531 -12.984375 L 15.9375 -12.984375 Z M 6.8125 -13.824219 L 2.589844 -13.824219 L 2.589844 -14.121094 L 6.8125 -14.121094 Z M 6.8125 -13.824219 "/></g></g></g><g fill="#ffffff" fill-opacity="1"><g transform="translate(182.796942, 243.744975)"><g><path d="M 13.097656 -14.210938 L 6.652344 -14.210938 L 6.652344 -14.53125 L 13.097656 -14.53125 Z M 12.804688 -6.039062 L 8.082031 -6.039062 L 8.082031 -6.265625 L 12.804688 -6.265625 Z M 11.328125 -0.5 L 7.515625 -0.5 L 7.515625 -0.792969 L 11.328125 -0.792969 Z M 19.523438 -9.351562 L 19.523438 -9.808594 L 17.140625 -9.808594 L 17.140625 -12.125 L 19.003906 -12.125 L 19.003906 -13.53125 L 17.320312 -13.53125 L 17.320312 -15.6875 L 16.84375 -15.6875 L 16.84375 -16.164062 L 19.363281 -16.164062 L 19.363281 -17.570312 L 17.480469 -17.570312 L 17.480469 -17.914062 C 17.480469 -18.617188 17.027344 -18.707031 16.824219 -18.707031 L 14.757812 -18.707031 C 14.550781 -18.707031 14.121094 -18.617188 14.121094 -17.914062 L 14.121094 -17.570312 L 16.003906 -17.570312 L 16.003906 -16.164062 L 9.761719 -16.164062 L 9.761719 -15.6875 L 13.960938 -15.6875 L 13.960938 -13.53125 L 15.640625 -13.53125 L 15.640625 -12.125 L 13.78125 -12.125 L 13.78125 -11.125 L 5.175781 -11.125 L 5.175781 -12.125 L 7.058594 -12.125 L 7.058594 -13.53125 L 5.359375 -13.53125 L 5.359375 -15.6875 L 4.902344 -15.6875 L 4.902344 -16.164062 L 7.402344 -16.164062 L 7.402344 -17.570312 L 5.515625 -17.570312 L 5.515625 -17.914062 C 5.515625 -18.617188 5.085938 -18.707031 4.882812 -18.707031 L 2.816406 -18.707031 C 2.609375 -18.707031 2.15625 -18.617188 2.15625 -17.914062 L 2.15625 -17.570312 L 4.042969 -17.570312 L 4.042969 -16.164062 L 0.679688 -16.164062 L 0.679688 -15.6875 L 1.996094 -15.6875 L 1.996094 -13.53125 L 3.679688 -13.53125 L 3.679688 -12.125 L 1.816406 -12.125 L 1.816406 -9.808594 L 7.785156 -9.808594 L 7.785156 -9.351562 L 1.613281 -9.351562 L 1.613281 -5.722656 L 3.519531 -5.722656 L 3.519531 -4.3125 L 2.792969 -4.3125 L 2.792969 -3.335938 L 1.476562 -3.335938 L 1.476562 -1.929688 L 3.15625 -1.929688 L 3.15625 -0.773438 C 3.15625 -0.0664062 3.609375 0.0234375 3.8125 0.0234375 L 5.902344 0.0234375 C 6.085938 0.0234375 6.515625 -0.0664062 6.515625 -0.773438 L 6.515625 -1.929688 L 4.835938 -1.929688 L 4.835938 -3.335938 L 10.625 -3.335938 L 10.625 -4.3125 L 6.878906 -4.3125 L 6.878906 -5.722656 L 5.199219 -5.722656 L 5.199219 -7.765625 L 14.347656 -7.765625 L 14.347656 -5.722656 L 15.484375 -5.722656 L 15.484375 -4.3125 L 13.960938 -4.3125 L 13.960938 -3.335938 L 13.441406 -3.335938 L 13.441406 -1.929688 L 15.121094 -1.929688 L 15.121094 -0.773438 C 15.121094 -0.0664062 15.550781 0.0234375 15.753906 0.0234375 L 17.820312 0.0234375 C 18.027344 0.0234375 18.480469 -0.0664062 18.480469 -0.773438 L 18.480469 -1.929688 L 16.800781 -1.929688 L 16.800781 -3.335938 L 18.503906 -3.335938 L 18.503906 -4.3125 L 18.84375 -4.3125 L 18.84375 -5.722656 L 17.914062 -5.722656 L 17.914062 -9.351562 Z M 19.523438 -9.351562 "/></g></g></g><g fill="#ffffff" fill-opacity="1"><g transform="translate(201.069229, 243.744975)"><g><path d="M 15.4375 -17.867188 L 15.4375 -17.957031 C 15.4375 -18.660156 15.007812 -18.753906 14.800781 -18.753906 L 1.769531 -18.753906 C 1.566406 -18.753906 1.136719 -18.660156 1.136719 -17.933594 L 1.136719 -17.867188 L 3.679688 -17.867188 L 3.679688 -17.414062 L 1.136719 -17.414062 L 1.136719 -16.164062 C 1.136719 -16.117188 1.136719 -16.050781 1.15625 -16.003906 L 2.566406 -16.003906 C 2.632812 -15.460938 3.019531 -15.390625 3.179688 -15.390625 L 16.230469 -15.371094 C 16.390625 -15.371094 16.777344 -15.4375 16.84375 -16.003906 L 15.4375 -16.003906 C 15.4375 -16.050781 15.4375 -16.097656 15.4375 -16.164062 L 15.4375 -17.414062 L 17.980469 -17.414062 L 17.980469 -17.867188 Z M 16.777344 -1.75 L 16.777344 -3.246094 C 16.777344 -3.585938 16.664062 -3.769531 16.527344 -3.882812 L 18.523438 -3.882812 C 18.390625 -4.019531 18.207031 -4.042969 18.117188 -4.042969 L 10.101562 -4.042969 C 9.625 -4.042969 9.238281 -4.085938 8.945312 -4.199219 C 8.648438 -4.289062 8.421875 -4.449219 8.242188 -4.699219 C 8.128906 -4.859375 8.035156 -5.0625 7.96875 -5.289062 L 6.128906 -5.289062 C 6.085938 -5.402344 6.039062 -5.5625 6.015625 -5.699219 C 5.992188 -5.835938 5.992188 -5.972656 5.972656 -6.105469 C 5.972656 -6.105469 5.972656 -6.242188 5.972656 -6.449219 L 14.371094 -6.449219 C 14.371094 -6.605469 14.371094 -6.832031 14.371094 -7.015625 L 5.992188 -7.015625 C 5.992188 -7.21875 5.992188 -7.421875 5.992188 -7.558594 L 7.378906 -7.558594 C 7.378906 -7.671875 7.378906 -7.742188 7.378906 -7.742188 L 17.527344 -7.742188 C 17.664062 -7.742188 17.914062 -7.765625 18.046875 -8.015625 L 16.664062 -8.015625 C 16.710938 -8.128906 16.777344 -8.285156 16.777344 -8.511719 L 16.777344 -9.375 L 17.820312 -9.375 L 17.820312 -10.011719 L 16.777344 -10.011719 L 16.777344 -10.308594 C 16.777344 -11.011719 16.324219 -11.101562 16.140625 -11.101562 L 4.425781 -11.078125 C 3.769531 -11.035156 3.199219 -10.671875 2.859375 -10.125 C 2.835938 -10.078125 2.835938 -10.035156 2.816406 -10.011719 L 3.859375 -10.011719 C 3.792969 -9.851562 3.722656 -9.714844 3.679688 -9.535156 L 3.679688 -9.375 L 2.632812 -9.375 L 2.609375 -8.015625 L 3.996094 -8.015625 L 3.996094 -7.558594 L 2.632812 -7.558594 L 2.609375 -7.015625 L 4.835938 -7.015625 L 4.835938 -6.5625 C 4.835938 -6.539062 4.835938 -6.492188 4.835938 -6.449219 L 2.609375 -6.449219 C 2.632812 -6.039062 2.65625 -5.652344 2.679688 -5.289062 L 4.539062 -5.289062 C 4.585938 -4.765625 4.652344 -4.3125 4.746094 -3.882812 L 2.746094 -3.882812 C 2.746094 -3.882812 2.769531 -3.859375 2.769531 -3.835938 C 2.953125 -3.019531 3.246094 -2.316406 3.65625 -1.75 L 5.539062 -1.75 C 5.5625 -1.726562 5.585938 -1.65625 5.628906 -1.613281 C 5.722656 -1.5 5.8125 -1.40625 5.925781 -1.292969 L 4.0625 -1.292969 C 4.472656 -0.886719 4.972656 -0.566406 5.539062 -0.363281 C 6.21875 -0.113281 7.082031 0.0234375 8.082031 0.0234375 L 16.140625 0.0234375 C 16.347656 0.0234375 16.800781 -0.0664062 16.800781 -0.773438 L 16.800781 -1.292969 L 18.640625 -1.292969 L 18.640625 -1.75 Z M 3.859375 -12.507812 L 11.375 -12.507812 L 11.375 -12.257812 L 3.859375 -12.257812 Z M 10.898438 -5.222656 L 15.9375 -5.222656 L 15.9375 -4.972656 L 10.898438 -4.972656 Z M 7.082031 -14.394531 L 14.78125 -14.394531 L 14.78125 -14.03125 L 7.082031 -14.03125 Z M 7.082031 -14.394531 "/></g></g></g><g fill="#ffffff" fill-opacity="1"><g transform="translate(218.320047, 243.744975)"><g><path d="M 19.023438 -11.738281 L 19.023438 -14.960938 L 17.34375 -14.960938 L 17.34375 -15.503906 L 18.617188 -15.503906 L 18.617188 -16.777344 L 17.34375 -16.777344 L 17.34375 -17.933594 C 17.34375 -18.640625 16.914062 -18.707031 16.710938 -18.707031 L 14.621094 -18.707031 C 14.4375 -18.707031 13.984375 -18.640625 13.984375 -17.933594 L 13.984375 -16.777344 L 15.234375 -16.777344 L 15.234375 -15.503906 L 13.984375 -15.503906 L 13.984375 -14.960938 L 15.664062 -14.960938 L 15.664062 -11.738281 L 13.984375 -11.738281 L 13.984375 -10.101562 L 15.234375 -10.101562 L 15.234375 -7.605469 L 14.394531 -7.605469 L 14.394531 -7.039062 L 15.234375 -7.039062 L 15.234375 -6.742188 C 15.234375 -6.21875 15.210938 -5.789062 15.1875 -5.402344 L 13.917969 -5.402344 C 13.917969 -5.265625 13.894531 -5.152344 13.871094 -5.039062 C 13.804688 -4.609375 13.667969 -4.269531 13.507812 -4.019531 C 13.441406 -3.925781 13.371094 -3.859375 13.28125 -3.792969 L 14.121094 -3.792969 C 14.121094 -3.792969 14.121094 -3.769531 14.097656 -3.769531 L 14.9375 -3.769531 C 14.824219 -3.65625 14.664062 -3.585938 14.507812 -3.519531 C 14.1875 -3.429688 13.804688 -3.359375 13.328125 -3.359375 L 8.421875 -3.359375 C 7.945312 -3.359375 7.539062 -3.429688 7.242188 -3.519531 C 7.058594 -3.585938 6.925781 -3.65625 6.8125 -3.769531 L 5.972656 -3.769531 C 5.949219 -3.769531 5.949219 -3.792969 5.949219 -3.792969 L 5.109375 -3.792969 C 5.015625 -3.859375 4.949219 -3.925781 4.882812 -4.019531 C 4.722656 -4.269531 4.585938 -4.609375 4.519531 -5.039062 C 4.496094 -5.152344 4.472656 -5.265625 4.449219 -5.402344 L 5.722656 -5.402344 C 5.675781 -5.789062 5.652344 -6.21875 5.652344 -6.742188 L 5.652344 -7.039062 L 7.152344 -7.039062 L 7.152344 -7.605469 L 5.652344 -7.605469 L 5.652344 -10.101562 L 4.382812 -10.101562 L 4.382812 -11.738281 L 6.0625 -11.738281 L 6.0625 -14.960938 L 9.785156 -14.960938 L 9.785156 -15.503906 L 5.652344 -15.503906 L 5.652344 -16.777344 L 4.382812 -16.777344 L 4.382812 -17.933594 C 4.382812 -18.640625 3.949219 -18.707031 3.746094 -18.707031 L 1.679688 -18.707031 C 1.476562 -18.707031 1.023438 -18.640625 1.023438 -17.933594 L 1.023438 -16.777344 L 2.269531 -16.777344 L 2.269531 -15.503906 L 1.023438 -15.503906 L 1.023438 -14.960938 L 2.703125 -14.960938 L 2.703125 -11.738281 L 1.023438 -11.738281 L 1.023438 -10.101562 L 2.269531 -10.101562 L 2.269531 -7.605469 L 1.429688 -7.605469 L 1.429688 -7.105469 C 1.429688 -7.082031 1.429688 -7.058594 1.453125 -7.039062 L 2.269531 -7.039062 C 2.269531 -6.46875 2.316406 -5.925781 2.339844 -5.402344 L 1.089844 -5.402344 C 1.136719 -4.835938 1.226562 -4.3125 1.316406 -3.859375 C 1.339844 -3.835938 1.339844 -3.8125 1.339844 -3.792969 L 2.179688 -3.792969 C 2.179688 -3.792969 2.179688 -3.769531 2.179688 -3.769531 L 3.019531 -3.769531 C 3.179688 -3.15625 3.382812 -2.632812 3.632812 -2.15625 L 2.382812 -2.15625 C 2.472656 -1.976562 2.589844 -1.792969 2.722656 -1.632812 C 3.109375 -1.15625 3.585938 -0.792969 4.132812 -0.523438 L 5.378906 -0.523438 C 5.492188 -0.476562 5.628906 -0.410156 5.742188 -0.363281 C 6.449219 -0.113281 7.308594 0 8.308594 0 L 13.417969 0 C 14.417969 0 15.277344 -0.113281 15.984375 -0.363281 C 16.117188 -0.410156 16.230469 -0.476562 16.347656 -0.523438 L 15.097656 -0.523438 C 15.640625 -0.792969 16.117188 -1.15625 16.503906 -1.632812 C 16.640625 -1.792969 16.753906 -1.976562 16.84375 -2.15625 L 18.117188 -2.15625 C 18.367188 -2.632812 18.570312 -3.15625 18.707031 -3.769531 L 17.867188 -3.769531 C 17.867188 -3.769531 17.867188 -3.792969 17.867188 -3.792969 L 17.027344 -3.792969 C 17.050781 -3.8125 17.050781 -3.835938 17.050781 -3.859375 C 17.164062 -4.3125 17.230469 -4.835938 17.277344 -5.402344 L 18.546875 -5.402344 C 18.570312 -5.925781 18.617188 -6.46875 18.617188 -7.039062 L 17.777344 -7.039062 C 17.777344 -7.058594 17.777344 -7.082031 17.777344 -7.105469 L 17.777344 -7.605469 L 18.617188 -7.605469 L 18.617188 -10.101562 L 17.34375 -10.101562 L 17.34375 -11.738281 Z M 9.761719 -10.078125 L 6.46875 -10.078125 L 6.46875 -10.671875 L 9.761719 -10.671875 Z M 13.460938 -5.992188 L 9.714844 -5.992188 L 9.714844 -6.449219 L 13.460938 -6.449219 Z M 13.460938 -12.53125 L 9.238281 -12.53125 L 9.238281 -13.28125 L 13.460938 -13.28125 Z M 13.460938 -12.53125 "/></g></g></g><g fill="#ffffff" fill-opacity="1"><g transform="translate(237.591095, 243.744975)"><g><path d="M 16.527344 -6.378906 L 18.480469 -6.378906 L 18.480469 -6.46875 C 18.480469 -7.039062 18.433594 -7.539062 18.34375 -8.015625 L 15.527344 -8.015625 C 15.390625 -8.785156 15.140625 -9.421875 14.78125 -9.921875 C 14.597656 -10.148438 14.417969 -10.351562 14.1875 -10.511719 L 17.867188 -10.511719 C 17.527344 -10.785156 17.140625 -10.964844 16.710938 -11.054688 L 13.417969 -11.054688 C 13.121094 -11.125 12.804688 -11.167969 12.464844 -11.167969 L 5.675781 -11.167969 C 5.335938 -11.167969 4.882812 -11.304688 4.882812 -12.417969 L 4.882812 -12.691406 L 7.855469 -12.691406 L 7.855469 -14.097656 C 7.855469 -14.167969 7.855469 -14.257812 7.855469 -14.324219 L 6.015625 -14.324219 C 6.015625 -14.324219 6.015625 -14.324219 6.015625 -14.347656 L 5.0625 -14.347656 C 5.085938 -14.644531 5.152344 -14.871094 5.265625 -15.050781 C 5.335938 -15.1875 5.472656 -15.347656 5.855469 -15.347656 L 15.097656 -15.347656 C 15.257812 -15.347656 15.640625 -15.414062 15.710938 -15.9375 L 17.867188 -15.9375 C 17.867188 -16.003906 17.867188 -16.050781 17.867188 -16.117188 L 17.867188 -17.570312 L 15.121094 -17.570312 L 15.121094 -17.933594 C 15.121094 -18.640625 14.6875 -18.707031 14.484375 -18.707031 L 4.699219 -18.707031 C 3.542969 -18.707031 2.65625 -18.320312 2.066406 -17.570312 L 4.8125 -17.570312 C 4.765625 -17.527344 4.746094 -17.503906 4.699219 -17.457031 C 4.402344 -17.027344 4.175781 -16.503906 4.042969 -15.9375 L 1.882812 -15.9375 C 1.769531 -15.460938 1.703125 -14.914062 1.703125 -14.347656 L 2.632812 -14.347656 C 2.632812 -14.324219 2.632812 -14.324219 2.632812 -14.324219 L 3.042969 -14.324219 C 3.042969 -14.300781 3.042969 -14.28125 3.042969 -14.234375 L 3.042969 -12.691406 L 1.519531 -12.691406 L 1.519531 -12.507812 C 1.519531 -11.988281 1.542969 -11.511719 1.613281 -11.054688 L 3.835938 -11.054688 C 3.882812 -10.875 3.90625 -10.691406 3.949219 -10.511719 L 1.316406 -10.511719 C 1.476562 -9.851562 1.703125 -9.285156 1.996094 -8.875 C 2.339844 -8.421875 2.746094 -8.171875 3.199219 -8.015625 L 6.015625 -8.015625 C 6.492188 -7.855469 7.015625 -7.808594 7.515625 -7.808594 L 14.324219 -7.808594 C 14.664062 -7.808594 15.121094 -7.671875 15.121094 -6.5625 L 15.121094 -6.378906 L 13.167969 -6.378906 L 13.167969 -4.609375 C 13.167969 -4.222656 13.097656 -3.925781 12.984375 -3.699219 L 14.644531 -3.699219 C 14.644531 -3.679688 14.644531 -3.679688 14.621094 -3.65625 C 14.550781 -3.519531 14.417969 -3.359375 14.03125 -3.359375 L 4.335938 -3.359375 C 4.199219 -3.359375 3.996094 -3.335938 3.835938 -3.15625 L 0.816406 -3.15625 C 0.726562 -3.042969 0.660156 -2.859375 0.660156 -2.589844 L 0.660156 -0.976562 L 3.40625 -0.976562 L 3.40625 -0.773438 C 3.40625 -0.0664062 3.859375 0 4.042969 0 L 14.300781 0 C 15.390625 0 16.230469 -0.316406 16.824219 -0.976562 L 14.074219 -0.976562 C 14.167969 -1.066406 14.234375 -1.15625 14.300781 -1.269531 C 14.6875 -1.792969 14.9375 -2.429688 15.074219 -3.15625 L 18.09375 -3.15625 C 18.117188 -3.335938 18.140625 -3.519531 18.160156 -3.699219 L 16.480469 -3.699219 C 16.503906 -3.949219 16.527344 -4.199219 16.527344 -4.472656 Z M 9.558594 -4.109375 L 4.789062 -4.109375 L 4.789062 -4.699219 L 9.558594 -4.699219 Z M 14.507812 -11.875 L 11.238281 -11.875 L 11.238281 -12.464844 L 14.507812 -12.464844 Z M 11.054688 -6.605469 L 6.832031 -6.605469 L 6.832031 -6.925781 L 11.054688 -6.925781 Z M 13.144531 -14.1875 L 8.945312 -14.1875 L 8.945312 -14.484375 L 13.144531 -14.484375 Z M 13.144531 -14.1875 "/></g></g></g><g fill="#00ff43" fill-opacity="1"><g transform="translate(127.754996, 265.869475)"><g><path d="M 4.546875 -1.046875 C 4.796875 -1.046875 4.972656 -1.117188 5.078125 -1.265625 C 5.191406 -1.410156 5.25 -1.578125 5.25 -1.765625 L 5.25 -6.5625 C 5.25 -6.738281 5.191406 -6.898438 5.078125 -7.046875 C 4.972656 -7.191406 4.796875 -7.265625 4.546875 -7.265625 L 2.09375 -7.265625 L 2.078125 -0.4375 C 2.078125 -0.28125 2.015625 -0.15625 1.890625 -0.0625 C 1.773438 0.03125 1.628906 0.078125 1.453125 0.078125 C 1.046875 0.078125 0.84375 -0.09375 0.84375 -0.4375 L 0.84375 -7.703125 C 0.84375 -7.953125 0.90625 -8.117188 1.03125 -8.203125 C 1.164062 -8.285156 1.320312 -8.328125 1.5 -8.328125 L 4.796875 -8.328125 C 4.984375 -8.328125 5.171875 -8.285156 5.359375 -8.203125 C 5.554688 -8.128906 5.75 -8.035156 5.9375 -7.921875 L 5.921875 -7.921875 C 6.109375 -7.785156 6.25 -7.609375 6.34375 -7.390625 C 6.4375 -7.179688 6.484375 -6.9375 6.484375 -6.65625 L 6.484375 -1.671875 C 6.484375 -1.109375 6.296875 -0.6875 5.921875 -0.40625 C 5.742188 -0.269531 5.554688 -0.164062 5.359375 -0.09375 C 5.171875 -0.0195312 4.984375 0.015625 4.796875 0.015625 L 3.046875 0.015625 C 2.921875 0.015625 2.820312 -0.03125 2.75 -0.125 C 2.6875 -0.226562 2.65625 -0.363281 2.65625 -0.53125 C 2.65625 -0.875 2.804688 -1.046875 3.109375 -1.046875 Z M 4.546875 -1.046875 "/></g></g></g><g fill="#00ff43" fill-opacity="1"><g transform="translate(143.370183, 265.869475)"><g><path d="M 1.515625 0.015625 C 1.253906 0.015625 1.078125 -0.0507812 0.984375 -0.1875 C 0.890625 -0.320312 0.84375 -0.46875 0.84375 -0.625 L 0.84375 -7.703125 C 0.84375 -7.859375 0.890625 -8 0.984375 -8.125 C 1.078125 -8.257812 1.253906 -8.328125 1.515625 -8.328125 L 5.15625 -8.328125 C 5.414062 -8.328125 5.550781 -8.148438 5.5625 -7.796875 C 5.582031 -7.441406 5.445312 -7.265625 5.15625 -7.265625 L 2.09375 -7.265625 L 2.09375 -1.046875 L 5.34375 -1.046875 C 5.601562 -1.046875 5.738281 -0.875 5.75 -0.53125 C 5.757812 -0.164062 5.625 0.015625 5.34375 0.015625 Z M 4.765625 -4.328125 C 4.765625 -4.085938 4.675781 -3.878906 4.5 -3.703125 C 4.332031 -3.535156 4.128906 -3.453125 3.890625 -3.453125 C 3.648438 -3.453125 3.445312 -3.535156 3.28125 -3.703125 C 3.113281 -3.878906 3.03125 -4.085938 3.03125 -4.328125 C 3.03125 -4.578125 3.113281 -4.785156 3.28125 -4.953125 C 3.445312 -5.117188 3.648438 -5.203125 3.890625 -5.203125 C 4.128906 -5.203125 4.332031 -5.117188 4.5 -4.953125 C 4.675781 -4.785156 4.765625 -4.578125 4.765625 -4.328125 Z M 4.765625 -4.328125 "/></g></g></g><g fill="#00ff43" fill-opacity="1"><g transform="translate(157.791043, 265.869475)"><g><path d="M 3.296875 0.046875 C 3.160156 0.046875 3.015625 0.0234375 2.859375 -0.015625 C 2.703125 -0.0546875 2.585938 -0.140625 2.515625 -0.265625 C 2.359375 -0.816406 2.191406 -1.378906 2.015625 -1.953125 C 1.835938 -2.523438 1.660156 -3.085938 1.484375 -3.640625 C 1.285156 -4.285156 1.078125 -4.957031 0.859375 -5.65625 C 0.640625 -6.363281 0.429688 -7.039062 0.234375 -7.6875 C 0.191406 -7.84375 0.210938 -7.976562 0.296875 -8.09375 C 0.390625 -8.207031 0.519531 -8.289062 0.6875 -8.34375 C 0.789062 -8.375 0.882812 -8.390625 0.96875 -8.390625 C 1.207031 -8.390625 1.359375 -8.269531 1.421875 -8.03125 L 2.203125 -5.546875 C 2.273438 -5.296875 2.359375 -5.019531 2.453125 -4.71875 C 2.546875 -4.414062 2.640625 -4.109375 2.734375 -3.796875 C 2.835938 -3.484375 2.9375 -3.171875 3.03125 -2.859375 C 3.125 -2.546875 3.210938 -2.253906 3.296875 -1.984375 C 3.429688 -2.429688 3.578125 -2.910156 3.734375 -3.421875 C 3.890625 -3.929688 4.050781 -4.453125 4.21875 -4.984375 C 4.382812 -5.515625 4.546875 -6.039062 4.703125 -6.5625 C 4.867188 -7.082031 5.019531 -7.570312 5.15625 -8.03125 C 5.238281 -8.269531 5.390625 -8.390625 5.609375 -8.390625 C 5.691406 -8.390625 5.789062 -8.375 5.90625 -8.34375 C 6.289062 -8.238281 6.441406 -8.019531 6.359375 -7.6875 C 5.972656 -6.457031 5.585938 -5.222656 5.203125 -3.984375 C 4.828125 -2.742188 4.445312 -1.503906 4.0625 -0.265625 C 4.007812 -0.128906 3.90625 -0.0390625 3.75 0 C 3.601562 0.03125 3.453125 0.046875 3.296875 0.046875 Z M 3.296875 0.046875 "/></g></g></g><g fill="#00ff43" fill-opacity="1"><g transform="translate(172.683342, 265.869475)"><g/></g></g><g fill="#00ff43" fill-opacity="1"><g transform="translate(184.21268, 265.869475)"><g><path d="M 0.703125 -3.609375 C 0.378906 -3.609375 0.21875 -3.785156 0.21875 -4.140625 C 0.226562 -4.316406 0.273438 -4.445312 0.359375 -4.53125 C 0.441406 -4.625 0.554688 -4.671875 0.703125 -4.671875 L 2.828125 -4.671875 C 3.140625 -4.671875 3.296875 -4.492188 3.296875 -4.140625 C 3.304688 -3.785156 3.148438 -3.609375 2.828125 -3.609375 Z M 0.703125 -3.609375 "/></g></g></g><g fill="#00ff43" fill-opacity="1"><g transform="translate(196.098215, 265.869475)"><g/></g></g><g fill="#00ff43" fill-opacity="1"><g transform="translate(207.627553, 265.869475)"><g><path d="M 8.296875 -7.984375 L 8.296875 -7.96875 C 8.335938 -8.125 8.414062 -8.234375 8.53125 -8.296875 C 8.65625 -8.367188 8.820312 -8.390625 9.03125 -8.359375 C 9.226562 -8.316406 9.367188 -8.25 9.453125 -8.15625 C 9.546875 -8.070312 9.566406 -7.953125 9.515625 -7.796875 L 7.625 -0.265625 L 7.625 -0.28125 C 7.59375 -0.164062 7.515625 -0.078125 7.390625 -0.015625 C 7.273438 0.046875 7.148438 0.078125 7.015625 0.078125 C 6.859375 0.078125 6.710938 0.0546875 6.578125 0.015625 C 6.441406 -0.0234375 6.359375 -0.117188 6.328125 -0.265625 L 6.328125 -0.25 L 5.046875 -5.375 L 4.765625 -5.375 L 3.484375 -0.265625 C 3.441406 -0.140625 3.351562 -0.0507812 3.21875 0 C 3.082031 0.0507812 2.9375 0.078125 2.78125 0.078125 C 2.601562 0.078125 2.457031 0.0507812 2.34375 0 C 2.238281 -0.0507812 2.171875 -0.140625 2.140625 -0.265625 L 2.15625 -0.265625 L 0.265625 -7.796875 C 0.222656 -7.929688 0.25 -8.046875 0.34375 -8.140625 C 0.445312 -8.242188 0.59375 -8.316406 0.78125 -8.359375 C 1.164062 -8.421875 1.398438 -8.289062 1.484375 -7.96875 L 1.484375 -7.984375 L 1.953125 -6.078125 C 2.015625 -5.828125 2.078125 -5.570312 2.140625 -5.3125 C 2.203125 -5.050781 2.269531 -4.769531 2.34375 -4.46875 C 2.425781 -4.175781 2.507812 -3.851562 2.59375 -3.5 C 2.6875 -3.15625 2.789062 -2.765625 2.90625 -2.328125 L 4.25 -7.984375 C 4.28125 -8.140625 4.359375 -8.238281 4.484375 -8.28125 C 4.609375 -8.332031 4.75 -8.359375 4.90625 -8.359375 C 5.039062 -8.359375 5.175781 -8.332031 5.3125 -8.28125 C 5.445312 -8.226562 5.53125 -8.125 5.5625 -7.96875 L 6.953125 -2.359375 Z M 8.296875 -7.984375 "/></g></g></g><g fill="#00ff43" fill-opacity="1"><g transform="translate(225.641857, 265.869475)"><g><path d="M 1.515625 0.015625 C 1.253906 0.015625 1.078125 -0.0507812 0.984375 -0.1875 C 0.890625 -0.320312 0.84375 -0.46875 0.84375 -0.625 L 0.84375 -7.703125 C 0.84375 -7.859375 0.890625 -8 0.984375 -8.125 C 1.078125 -8.257812 1.253906 -8.328125 1.515625 -8.328125 L 5.15625 -8.328125 C 5.414062 -8.328125 5.550781 -8.148438 5.5625 -7.796875 C 5.582031 -7.441406 5.445312 -7.265625 5.15625 -7.265625 L 2.09375 -7.265625 L 2.09375 -1.046875 L 5.34375 -1.046875 C 5.601562 -1.046875 5.738281 -0.875 5.75 -0.53125 C 5.757812 -0.164062 5.625 0.015625 5.34375 0.015625 Z M 4.765625 -4.328125 C 4.765625 -4.085938 4.675781 -3.878906 4.5 -3.703125 C 4.332031 -3.535156 4.128906 -3.453125 3.890625 -3.453125 C 3.648438 -3.453125 3.445312 -3.535156 3.28125 -3.703125 C 3.113281 -3.878906 3.03125 -4.085938 3.03125 -4.328125 C 3.03125 -4.578125 3.113281 -4.785156 3.28125 -4.953125 C 3.445312 -5.117188 3.648438 -5.203125 3.890625 -5.203125 C 4.128906 -5.203125 4.332031 -5.117188 4.5 -4.953125 C 4.675781 -4.785156 4.765625 -4.578125 4.765625 -4.328125 Z M 4.765625 -4.328125 "/></g></g></g><g fill="#00ff43" fill-opacity="1"><g transform="translate(240.062716, 265.869475)"><g><path d="M 5.1875 -3.09375 C 5.1875 -3.25 5.125 -3.398438 5 -3.546875 C 4.882812 -3.703125 4.675781 -3.789062 4.375 -3.8125 C 4.1875 -3.570312 3.953125 -3.453125 3.671875 -3.453125 C 3.429688 -3.453125 3.226562 -3.535156 3.0625 -3.703125 C 2.894531 -3.878906 2.8125 -4.085938 2.8125 -4.328125 C 2.8125 -4.578125 2.894531 -4.785156 3.0625 -4.953125 C 3.226562 -5.117188 3.429688 -5.203125 3.671875 -5.203125 C 3.796875 -5.203125 3.914062 -5.164062 4.03125 -5.09375 C 4.15625 -5.019531 4.269531 -4.9375 4.375 -4.84375 C 4.53125 -4.851562 4.648438 -4.878906 4.734375 -4.921875 C 4.816406 -4.960938 4.875 -5.007812 4.90625 -5.0625 C 4.945312 -5.125 4.96875 -5.191406 4.96875 -5.265625 C 4.976562 -5.347656 4.984375 -5.425781 4.984375 -5.5 L 4.984375 -6.5625 C 4.984375 -6.738281 4.929688 -6.898438 4.828125 -7.046875 C 4.722656 -7.191406 4.539062 -7.265625 4.28125 -7.265625 L 2.09375 -7.265625 L 2.078125 -0.34375 C 2.078125 -0.207031 2.007812 -0.101562 1.875 -0.03125 C 1.75 0.0390625 1.609375 0.078125 1.453125 0.078125 C 1.046875 0.078125 0.84375 -0.0859375 0.84375 -0.421875 L 0.84375 -7.703125 C 0.84375 -7.953125 0.90625 -8.117188 1.03125 -8.203125 C 1.164062 -8.285156 1.320312 -8.328125 1.5 -8.328125 L 4.546875 -8.328125 C 4.722656 -8.328125 4.914062 -8.289062 5.125 -8.21875 C 5.332031 -8.144531 5.523438 -8.050781 5.703125 -7.9375 L 5.6875 -7.9375 C 5.875 -7.800781 6.007812 -7.625 6.09375 -7.40625 C 6.1875 -7.195312 6.234375 -6.945312 6.234375 -6.65625 L 6.234375 -5.46875 C 6.234375 -5.1875 6.171875 -4.957031 6.046875 -4.78125 C 5.929688 -4.601562 5.804688 -4.460938 5.671875 -4.359375 C 5.765625 -4.304688 5.851562 -4.25 5.9375 -4.1875 C 6.019531 -4.125 6.085938 -4.0625 6.140625 -4 C 6.234375 -3.894531 6.304688 -3.773438 6.359375 -3.640625 C 6.410156 -3.515625 6.4375 -3.359375 6.4375 -3.171875 L 6.4375 -1.671875 C 6.4375 -1.097656 6.210938 -0.675781 5.765625 -0.40625 C 5.546875 -0.269531 5.332031 -0.164062 5.125 -0.09375 C 4.925781 -0.0195312 4.734375 0.015625 4.546875 0.015625 L 2.984375 0.015625 C 2.867188 0.015625 2.773438 -0.03125 2.703125 -0.125 C 2.640625 -0.226562 2.609375 -0.363281 2.609375 -0.53125 C 2.609375 -0.875 2.753906 -1.046875 3.046875 -1.046875 L 4.484375 -1.046875 C 4.742188 -1.046875 4.925781 -1.117188 5.03125 -1.265625 C 5.132812 -1.410156 5.1875 -1.578125 5.1875 -1.765625 Z M 5.1875 -3.09375 "/></g></g></g></svg>