<svg xmlns="http://www.w3.org/2000/svg" xmlns:xlink="http://www.w3.org/1999/xlink" width="99" zoomAndPan="magnify" viewBox="0 0 74.25 55.499996" height="74" preserveAspectRatio="xMidYMid meet" version="1.0"><defs><g/></defs><g fill="#ff00ff" fill-opacity="1"><g transform="translate(16.317486, 20.221308)"><g><path d="M 6.328125 0.1875 C 4.253906 0.1875 2.734375 -0.238281 1.765625 -1.09375 C 0.898438 -1.84375 0.46875 -2.867188 0.46875 -4.171875 C 0.46875 -5.472656 0.898438 -6.5 1.765625 -7.25 C 2.734375 -8.101562 4.253906 -8.53125 6.328125 -8.53125 C 7.535156 -8.53125 8.535156 -8.390625 9.328125 -8.109375 C 10.117188 -7.828125 10.734375 -7.445312 11.171875 -6.96875 C 11.617188 -6.488281 11.910156 -5.9375 12.046875 -5.3125 L 8.359375 -5.3125 C 7.992188 -5.96875 7.316406 -6.296875 6.328125 -6.296875 C 5.472656 -6.296875 4.847656 -6.050781 4.453125 -5.5625 C 4.128906 -5.164062 3.96875 -4.703125 3.96875 -4.171875 C 3.96875 -3.640625 4.128906 -3.179688 4.453125 -2.796875 C 4.847656 -2.304688 5.472656 -2.0625 6.328125 -2.0625 C 7.316406 -2.0625 7.992188 -2.382812 8.359375 -3.03125 L 12.046875 -3.03125 C 11.910156 -2.40625 11.617188 -1.851562 11.171875 -1.375 C 10.734375 -0.894531 10.117188 -0.515625 9.328125 -0.234375 C 8.535156 0.046875 7.535156 0.1875 6.328125 0.1875 Z M 6.328125 0.1875 "/></g></g></g><g fill="#ff00ff" fill-opacity="1"><g transform="translate(28.826236, 20.221308)"><g><path d="M 16.828125 0 L 13.328125 0 L 13.328125 -5.328125 L 10.1875 0 L 7.578125 0 L 4.4375 -5.328125 L 4.4375 0 L 0.9375 0 L 0.9375 -8.359375 L 5.09375 -8.359375 L 8.890625 -2.390625 L 12.65625 -8.359375 L 16.828125 -8.359375 Z M 16.828125 0 "/></g></g></g><g fill="#ff00ff" fill-opacity="1"><g transform="translate(46.576082, 20.221308)"><g><path d="M 5.53125 0.1875 C 4.394531 0.1875 3.476562 0.0664062 2.78125 -0.171875 C 2.09375 -0.421875 1.566406 -0.757812 1.203125 -1.1875 C 0.847656 -1.613281 0.609375 -2.101562 0.484375 -2.65625 L 4.203125 -2.65625 C 4.484375 -2.257812 4.925781 -2.0625 5.53125 -2.0625 C 6.125 -2.0625 6.5625 -2.257812 6.84375 -2.65625 C 6.863281 -2.695312 6.875 -2.734375 6.875 -2.765625 C 6.875 -2.867188 6.734375 -2.945312 6.453125 -3 C 6.179688 -3.050781 5.769531 -3.09375 5.21875 -3.125 C 4.519531 -3.15625 3.789062 -3.226562 3.03125 -3.34375 C 1.320312 -3.601562 0.46875 -4.285156 0.46875 -5.390625 C 0.46875 -5.484375 0.472656 -5.582031 0.484375 -5.6875 C 0.609375 -6.25 0.847656 -6.742188 1.203125 -7.171875 C 1.566406 -7.597656 2.09375 -7.929688 2.78125 -8.171875 C 3.476562 -8.410156 4.394531 -8.53125 5.53125 -8.53125 C 6.65625 -8.53125 7.5625 -8.410156 8.25 -8.171875 C 8.945312 -7.929688 9.472656 -7.597656 9.828125 -7.171875 C 10.191406 -6.742188 10.4375 -6.25 10.5625 -5.6875 L 6.84375 -5.6875 C 6.5625 -6.09375 6.125 -6.296875 5.53125 -6.296875 C 4.925781 -6.296875 4.484375 -6.09375 4.203125 -5.6875 C 4.179688 -5.65625 4.171875 -5.628906 4.171875 -5.609375 C 4.171875 -5.515625 4.304688 -5.441406 4.578125 -5.390625 C 4.847656 -5.347656 5.238281 -5.3125 5.75 -5.28125 C 6.269531 -5.25 6.820312 -5.195312 7.40625 -5.125 C 8 -5.0625 8.550781 -4.941406 9.0625 -4.765625 C 9.570312 -4.597656 9.972656 -4.34375 10.265625 -4 C 10.484375 -3.738281 10.59375 -3.410156 10.59375 -3.015625 C 10.59375 -2.898438 10.582031 -2.78125 10.5625 -2.65625 C 10.4375 -2.101562 10.191406 -1.613281 9.828125 -1.1875 C 9.472656 -0.757812 8.945312 -0.421875 8.25 -0.171875 C 7.5625 0.0664062 6.65625 0.1875 5.53125 0.1875 Z M 5.53125 0.1875 "/></g></g></g><g fill="#00ffff" fill-opacity="1"><g transform="translate(15.870037, 20.221308)"><g><path d="M 6.328125 0.1875 C 4.253906 0.1875 2.734375 -0.238281 1.765625 -1.09375 C 0.898438 -1.84375 0.46875 -2.867188 0.46875 -4.171875 C 0.46875 -5.472656 0.898438 -6.5 1.765625 -7.25 C 2.734375 -8.101562 4.253906 -8.53125 6.328125 -8.53125 C 7.535156 -8.53125 8.535156 -8.390625 9.328125 -8.109375 C 10.117188 -7.828125 10.734375 -7.445312 11.171875 -6.96875 C 11.617188 -6.488281 11.910156 -5.9375 12.046875 -5.3125 L 8.359375 -5.3125 C 7.992188 -5.96875 7.316406 -6.296875 6.328125 -6.296875 C 5.472656 -6.296875 4.847656 -6.050781 4.453125 -5.5625 C 4.128906 -5.164062 3.96875 -4.703125 3.96875 -4.171875 C 3.96875 -3.640625 4.128906 -3.179688 4.453125 -2.796875 C 4.847656 -2.304688 5.472656 -2.0625 6.328125 -2.0625 C 7.316406 -2.0625 7.992188 -2.382812 8.359375 -3.03125 L 12.046875 -3.03125 C 11.910156 -2.40625 11.617188 -1.851562 11.171875 -1.375 C 10.734375 -0.894531 10.117188 -0.515625 9.328125 -0.234375 C 8.535156 0.046875 7.535156 0.1875 6.328125 0.1875 Z M 6.328125 0.1875 "/></g></g></g><g fill="#00ffff" fill-opacity="1"><g transform="translate(28.378787, 20.221308)"><g><path d="M 16.828125 0 L 13.328125 0 L 13.328125 -5.328125 L 10.1875 0 L 7.578125 0 L 4.4375 -5.328125 L 4.4375 0 L 0.9375 0 L 0.9375 -8.359375 L 5.09375 -8.359375 L 8.890625 -2.390625 L 12.65625 -8.359375 L 16.828125 -8.359375 Z M 16.828125 0 "/></g></g></g><g fill="#00ffff" fill-opacity="1"><g transform="translate(46.128633, 20.221308)"><g><path d="M 5.53125 0.1875 C 4.394531 0.1875 3.476562 0.0664062 2.78125 -0.171875 C 2.09375 -0.421875 1.566406 -0.757812 1.203125 -1.1875 C 0.847656 -1.613281 0.609375 -2.101562 0.484375 -2.65625 L 4.203125 -2.65625 C 4.484375 -2.257812 4.925781 -2.0625 5.53125 -2.0625 C 6.125 -2.0625 6.5625 -2.257812 6.84375 -2.65625 C 6.863281 -2.695312 6.875 -2.734375 6.875 -2.765625 C 6.875 -2.867188 6.734375 -2.945312 6.453125 -3 C 6.179688 -3.050781 5.769531 -3.09375 5.21875 -3.125 C 4.519531 -3.15625 3.789062 -3.226562 3.03125 -3.34375 C 1.320312 -3.601562 0.46875 -4.285156 0.46875 -5.390625 C 0.46875 -5.484375 0.472656 -5.582031 0.484375 -5.6875 C 0.609375 -6.25 0.847656 -6.742188 1.203125 -7.171875 C 1.566406 -7.597656 2.09375 -7.929688 2.78125 -8.171875 C 3.476562 -8.410156 4.394531 -8.53125 5.53125 -8.53125 C 6.65625 -8.53125 7.5625 -8.410156 8.25 -8.171875 C 8.945312 -7.929688 9.472656 -7.597656 9.828125 -7.171875 C 10.191406 -6.742188 10.4375 -6.25 10.5625 -5.6875 L 6.84375 -5.6875 C 6.5625 -6.09375 6.125 -6.296875 5.53125 -6.296875 C 4.925781 -6.296875 4.484375 -6.09375 4.203125 -5.6875 C 4.179688 -5.65625 4.171875 -5.628906 4.171875 -5.609375 C 4.171875 -5.515625 4.304688 -5.441406 4.578125 -5.390625 C 4.847656 -5.347656 5.238281 -5.3125 5.75 -5.28125 C 6.269531 -5.25 6.820312 -5.195312 7.40625 -5.125 C 8 -5.0625 8.550781 -4.941406 9.0625 -4.765625 C 9.570312 -4.597656 9.972656 -4.34375 10.265625 -4 C 10.484375 -3.738281 10.59375 -3.410156 10.59375 -3.015625 C 10.59375 -2.898438 10.582031 -2.78125 10.5625 -2.65625 C 10.4375 -2.101562 10.191406 -1.613281 9.828125 -1.1875 C 9.472656 -0.757812 8.945312 -0.421875 8.25 -0.171875 C 7.5625 0.0664062 6.65625 0.1875 5.53125 0.1875 Z M 5.53125 0.1875 "/></g></g></g><g fill="#ffffff" fill-opacity="1"><g transform="translate(16.093761, 20.221308)"><g><path d="M 6.328125 0.1875 C 4.253906 0.1875 2.734375 -0.238281 1.765625 -1.09375 C 0.898438 -1.84375 0.46875 -2.867188 0.46875 -4.171875 C 0.46875 -5.472656 0.898438 -6.5 1.765625 -7.25 C 2.734375 -8.101562 4.253906 -8.53125 6.328125 -8.53125 C 7.535156 -8.53125 8.535156 -8.390625 9.328125 -8.109375 C 10.117188 -7.828125 10.734375 -7.445312 11.171875 -6.96875 C 11.617188 -6.488281 11.910156 -5.9375 12.046875 -5.3125 L 8.359375 -5.3125 C 7.992188 -5.96875 7.316406 -6.296875 6.328125 -6.296875 C 5.472656 -6.296875 4.847656 -6.050781 4.453125 -5.5625 C 4.128906 -5.164062 3.96875 -4.703125 3.96875 -4.171875 C 3.96875 -3.640625 4.128906 -3.179688 4.453125 -2.796875 C 4.847656 -2.304688 5.472656 -2.0625 6.328125 -2.0625 C 7.316406 -2.0625 7.992188 -2.382812 8.359375 -3.03125 L 12.046875 -3.03125 C 11.910156 -2.40625 11.617188 -1.851562 11.171875 -1.375 C 10.734375 -0.894531 10.117188 -0.515625 9.328125 -0.234375 C 8.535156 0.046875 7.535156 0.1875 6.328125 0.1875 Z M 6.328125 0.1875 "/></g></g></g><g fill="#ffffff" fill-opacity="1"><g transform="translate(28.602511, 20.221308)"><g><path d="M 16.828125 0 L 13.328125 0 L 13.328125 -5.328125 L 10.1875 0 L 7.578125 0 L 4.4375 -5.328125 L 4.4375 0 L 0.9375 0 L 0.9375 -8.359375 L 5.09375 -8.359375 L 8.890625 -2.390625 L 12.65625 -8.359375 L 16.828125 -8.359375 Z M 16.828125 0 "/></g></g></g><g fill="#ffffff" fill-opacity="1"><g transform="translate(46.352358, 20.221308)"><g><path d="M 5.53125 0.1875 C 4.394531 0.1875 3.476562 0.0664062 2.78125 -0.171875 C 2.09375 -0.421875 1.566406 -0.757812 1.203125 -1.1875 C 0.847656 -1.613281 0.609375 -2.101562 0.484375 -2.65625 L 4.203125 -2.65625 C 4.484375 -2.257812 4.925781 -2.0625 5.53125 -2.0625 C 6.125 -2.0625 6.5625 -2.257812 6.84375 -2.65625 C 6.863281 -2.695312 6.875 -2.734375 6.875 -2.765625 C 6.875 -2.867188 6.734375 -2.945312 6.453125 -3 C 6.179688 -3.050781 5.769531 -3.09375 5.21875 -3.125 C 4.519531 -3.15625 3.789062 -3.226562 3.03125 -3.34375 C 1.320312 -3.601562 0.46875 -4.285156 0.46875 -5.390625 C 0.46875 -5.484375 0.472656 -5.582031 0.484375 -5.6875 C 0.609375 -6.25 0.847656 -6.742188 1.203125 -7.171875 C 1.566406 -7.597656 2.09375 -7.929688 2.78125 -8.171875 C 3.476562 -8.410156 4.394531 -8.53125 5.53125 -8.53125 C 6.65625 -8.53125 7.5625 -8.410156 8.25 -8.171875 C 8.945312 -7.929688 9.472656 -7.597656 9.828125 -7.171875 C 10.191406 -6.742188 10.4375 -6.25 10.5625 -5.6875 L 6.84375 -5.6875 C 6.5625 -6.09375 6.125 -6.296875 5.53125 -6.296875 C 4.925781 -6.296875 4.484375 -6.09375 4.203125 -5.6875 C 4.179688 -5.65625 4.171875 -5.628906 4.171875 -5.609375 C 4.171875 -5.515625 4.304688 -5.441406 4.578125 -5.390625 C 4.847656 -5.347656 5.238281 -5.3125 5.75 -5.28125 C 6.269531 -5.25 6.820312 -5.195312 7.40625 -5.125 C 8 -5.0625 8.550781 -4.941406 9.0625 -4.765625 C 9.570312 -4.597656 9.972656 -4.34375 10.265625 -4 C 10.484375 -3.738281 10.59375 -3.410156 10.59375 -3.015625 C 10.59375 -2.898438 10.582031 -2.78125 10.5625 -2.65625 C 10.4375 -2.101562 10.191406 -1.613281 9.828125 -1.1875 C 9.472656 -0.757812 8.945312 -0.421875 8.25 -0.171875 C 7.5625 0.0664062 6.65625 0.1875 5.53125 0.1875 Z M 5.53125 0.1875 "/></g></g></g><g fill="#00f103" fill-opacity="0.4"><g transform="translate(1.953197, 41.339411)"><g><path d="M 30.40625 0 L 24.0625 0 L 24.0625 -9.640625 L 18.40625 0 L 13.671875 0 L 8.015625 -9.640625 L 8.015625 0 L 1.6875 0 L 1.6875 -15.109375 L 9.21875 -15.109375 L 16.046875 -4.3125 L 22.875 -15.109375 L 30.40625 -15.109375 Z M 30.40625 0 "/></g></g></g><g fill="#00f103" fill-opacity="0.4"><g transform="translate(34.034145, 41.339411)"><g><path d="M 12.890625 0 L 6.546875 0 L 6.546875 -11.375 L 0.625 -11.375 L 0.625 -15.109375 L 18.796875 -15.109375 L 18.796875 -11.375 L 12.890625 -11.375 Z M 12.890625 0 "/></g></g></g><g fill="#00f103" fill-opacity="0.4"><g transform="translate(53.463747, 41.339411)"><g><path d="M 9.984375 0.328125 C 7.941406 0.328125 6.296875 0.109375 5.046875 -0.328125 C 3.796875 -0.765625 2.84375 -1.367188 2.1875 -2.140625 C 1.53125 -2.910156 1.09375 -3.796875 0.875 -4.796875 L 7.609375 -4.796875 C 8.097656 -4.085938 8.890625 -3.734375 9.984375 -3.734375 C 11.066406 -3.734375 11.859375 -4.085938 12.359375 -4.796875 C 12.398438 -4.867188 12.421875 -4.929688 12.421875 -4.984375 C 12.421875 -5.179688 12.171875 -5.328125 11.671875 -5.421875 C 11.171875 -5.515625 10.421875 -5.582031 9.421875 -5.625 C 8.160156 -5.6875 6.84375 -5.820312 5.46875 -6.03125 C 2.382812 -6.507812 0.84375 -7.75 0.84375 -9.75 C 0.84375 -9.914062 0.851562 -10.09375 0.875 -10.28125 C 1.09375 -11.289062 1.53125 -12.175781 2.1875 -12.9375 C 2.84375 -13.707031 3.796875 -14.3125 5.046875 -14.75 C 6.296875 -15.1875 7.941406 -15.40625 9.984375 -15.40625 C 12.023438 -15.40625 13.671875 -15.1875 14.921875 -14.75 C 16.171875 -14.3125 17.117188 -13.707031 17.765625 -12.9375 C 18.421875 -12.175781 18.863281 -11.289062 19.09375 -10.28125 L 12.359375 -10.28125 C 11.859375 -11 11.066406 -11.359375 9.984375 -11.359375 C 8.890625 -11.359375 8.097656 -11 7.609375 -10.28125 C 7.566406 -10.226562 7.546875 -10.175781 7.546875 -10.125 C 7.546875 -9.957031 7.785156 -9.832031 8.265625 -9.75 C 8.742188 -9.675781 9.453125 -9.609375 10.390625 -9.546875 C 11.328125 -9.492188 12.328125 -9.40625 13.390625 -9.28125 C 14.453125 -9.15625 15.441406 -8.9375 16.359375 -8.625 C 17.285156 -8.3125 18.007812 -7.847656 18.53125 -7.234375 C 18.9375 -6.765625 19.140625 -6.164062 19.140625 -5.4375 C 19.140625 -5.238281 19.125 -5.023438 19.09375 -4.796875 C 18.863281 -3.796875 18.421875 -2.910156 17.765625 -2.140625 C 17.117188 -1.367188 16.171875 -0.765625 14.921875 -0.328125 C 13.671875 0.109375 12.023438 0.328125 9.984375 0.328125 Z M 9.984375 0.328125 "/></g></g></g><g fill="#00f103" fill-opacity="1"><g transform="translate(1.000129, 40.386343)"><g><path d="M 30.40625 0 L 24.0625 0 L 24.0625 -9.640625 L 18.40625 0 L 13.671875 0 L 8.015625 -9.640625 L 8.015625 0 L 1.6875 0 L 1.6875 -15.109375 L 9.21875 -15.109375 L 16.046875 -4.3125 L 22.875 -15.109375 L 30.40625 -15.109375 Z M 30.40625 0 "/></g></g></g><g fill="#00f103" fill-opacity="1"><g transform="translate(33.081077, 40.386343)"><g><path d="M 12.890625 0 L 6.546875 0 L 6.546875 -11.375 L 0.625 -11.375 L 0.625 -15.109375 L 18.796875 -15.109375 L 18.796875 -11.375 L 12.890625 -11.375 Z M 12.890625 0 "/></g></g></g><g fill="#00f103" fill-opacity="1"><g transform="translate(52.510679, 40.386343)"><g><path d="M 9.984375 0.328125 C 7.941406 0.328125 6.296875 0.109375 5.046875 -0.328125 C 3.796875 -0.765625 2.84375 -1.367188 2.1875 -2.140625 C 1.53125 -2.910156 1.09375 -3.796875 0.875 -4.796875 L 7.609375 -4.796875 C 8.097656 -4.085938 8.890625 -3.734375 9.984375 -3.734375 C 11.066406 -3.734375 11.859375 -4.085938 12.359375 -4.796875 C 12.398438 -4.867188 12.421875 -4.929688 12.421875 -4.984375 C 12.421875 -5.179688 12.171875 -5.328125 11.671875 -5.421875 C 11.171875 -5.515625 10.421875 -5.582031 9.421875 -5.625 C 8.160156 -5.6875 6.84375 -5.820312 5.46875 -6.03125 C 2.382812 -6.507812 0.84375 -7.75 0.84375 -9.75 C 0.84375 -9.914062 0.851562 -10.09375 0.875 -10.28125 C 1.09375 -11.289062 1.53125 -12.175781 2.1875 -12.9375 C 2.84375 -13.707031 3.796875 -14.3125 5.046875 -14.75 C 6.296875 -15.1875 7.941406 -15.40625 9.984375 -15.40625 C 12.023438 -15.40625 13.671875 -15.1875 14.921875 -14.75 C 16.171875 -14.3125 17.117188 -13.707031 17.765625 -12.9375 C 18.421875 -12.175781 18.863281 -11.289062 19.09375 -10.28125 L 12.359375 -10.28125 C 11.859375 -11 11.066406 -11.359375 9.984375 -11.359375 C 8.890625 -11.359375 8.097656 -11 7.609375 -10.28125 C 7.566406 -10.226562 7.546875 -10.175781 7.546875 -10.125 C 7.546875 -9.957031 7.785156 -9.832031 8.265625 -9.75 C 8.742188 -9.675781 9.453125 -9.609375 10.390625 -9.546875 C 11.328125 -9.492188 12.328125 -9.40625 13.390625 -9.28125 C 14.453125 -9.15625 15.441406 -8.9375 16.359375 -8.625 C 17.285156 -8.3125 18.007812 -7.847656 18.53125 -7.234375 C 18.9375 -6.765625 19.140625 -6.164062 19.140625 -5.4375 C 19.140625 -5.238281 19.125 -5.023438 19.09375 -4.796875 C 18.863281 -3.796875 18.421875 -2.910156 17.765625 -2.140625 C 17.117188 -1.367188 16.171875 -0.765625 14.921875 -0.328125 C 13.671875 0.109375 12.023438 0.328125 9.984375 0.328125 Z M 9.984375 0.328125 "/></g></g></g></svg>